G04 EAGLE Gerber RS-274X export*
G75*
%MOMM*%
%FSLAX34Y34*%
%LPD*%
%INBottom Copper*%
%IPPOS*%
%AMOC8*
5,1,8,0,0,1.08239X$1,22.5*%
G01*
%ADD10C,0.858000*%

G36*
X820019Y-58488D02*
X820019Y-58488D01*
X820050Y-58490D01*
X826280Y-58081D01*
X826303Y-58076D01*
X826427Y-58057D01*
X838463Y-54832D01*
X838477Y-54826D01*
X838492Y-54823D01*
X838646Y-54756D01*
X849437Y-48526D01*
X849449Y-48516D01*
X849463Y-48510D01*
X849594Y-48405D01*
X858405Y-39594D01*
X858414Y-39582D01*
X858427Y-39572D01*
X858526Y-39437D01*
X864756Y-28646D01*
X864762Y-28631D01*
X864771Y-28619D01*
X864832Y-28463D01*
X868057Y-16427D01*
X868059Y-16403D01*
X868081Y-16280D01*
X868490Y-10050D01*
X868488Y-10031D01*
X868491Y-10000D01*
X868491Y390000D01*
X868488Y390019D01*
X868490Y390050D01*
X868081Y396280D01*
X868076Y396303D01*
X868057Y396427D01*
X864832Y408463D01*
X864826Y408477D01*
X864823Y408492D01*
X864756Y408646D01*
X858526Y419437D01*
X858516Y419449D01*
X858510Y419463D01*
X858405Y419594D01*
X849594Y428405D01*
X849582Y428414D01*
X849572Y428427D01*
X849437Y428526D01*
X838646Y434756D01*
X838631Y434762D01*
X838619Y434771D01*
X838463Y434832D01*
X826427Y438057D01*
X826403Y438059D01*
X826280Y438081D01*
X820050Y438490D01*
X820031Y438488D01*
X820000Y438491D01*
X20000Y438491D01*
X19981Y438488D01*
X19950Y438490D01*
X13720Y438081D01*
X13697Y438076D01*
X13573Y438057D01*
X1537Y434832D01*
X1523Y434826D01*
X1508Y434823D01*
X1354Y434756D01*
X-9437Y428526D01*
X-9449Y428516D01*
X-9463Y428510D01*
X-9594Y428405D01*
X-18405Y419594D01*
X-18414Y419582D01*
X-18427Y419572D01*
X-18526Y419437D01*
X-24756Y408646D01*
X-24762Y408631D01*
X-24771Y408619D01*
X-24832Y408463D01*
X-28057Y396427D01*
X-28059Y396403D01*
X-28081Y396280D01*
X-28490Y390050D01*
X-28488Y390031D01*
X-28491Y390000D01*
X-28491Y-10000D01*
X-28488Y-10019D01*
X-28490Y-10050D01*
X-28081Y-16280D01*
X-28076Y-16303D01*
X-28057Y-16427D01*
X-24832Y-28463D01*
X-24826Y-28477D01*
X-24823Y-28492D01*
X-24756Y-28646D01*
X-18526Y-39437D01*
X-18516Y-39449D01*
X-18510Y-39463D01*
X-18405Y-39594D01*
X-9594Y-48405D01*
X-9582Y-48414D01*
X-9572Y-48427D01*
X-9437Y-48526D01*
X1354Y-54756D01*
X1369Y-54762D01*
X1381Y-54771D01*
X1537Y-54832D01*
X13573Y-58057D01*
X13597Y-58059D01*
X13720Y-58081D01*
X19950Y-58490D01*
X19969Y-58488D01*
X20000Y-58491D01*
X820000Y-58491D01*
X820019Y-58488D01*
G37*
G36*
X875090Y-65747D02*
X875090Y-65747D01*
X875181Y-65739D01*
X875211Y-65727D01*
X875243Y-65722D01*
X875323Y-65679D01*
X875407Y-65643D01*
X875439Y-65617D01*
X875460Y-65606D01*
X875482Y-65583D01*
X875538Y-65538D01*
X880538Y-60538D01*
X880591Y-60464D01*
X880651Y-60395D01*
X880663Y-60365D01*
X880682Y-60339D01*
X880709Y-60252D01*
X880743Y-60167D01*
X880747Y-60126D01*
X880754Y-60103D01*
X880753Y-60071D01*
X880761Y-60000D01*
X880761Y440000D01*
X880758Y440020D01*
X880760Y440039D01*
X880738Y440141D01*
X880722Y440243D01*
X880712Y440260D01*
X880708Y440280D01*
X880655Y440369D01*
X880606Y440460D01*
X880592Y440474D01*
X880582Y440491D01*
X880503Y440558D01*
X880428Y440630D01*
X880410Y440638D01*
X880395Y440651D01*
X880299Y440690D01*
X880205Y440733D01*
X880185Y440735D01*
X880167Y440743D01*
X880000Y440761D01*
X835353Y440761D01*
X835329Y440757D01*
X835305Y440760D01*
X835208Y440738D01*
X835110Y440722D01*
X835089Y440710D01*
X835066Y440705D01*
X834981Y440653D01*
X834893Y440606D01*
X834876Y440589D01*
X834856Y440576D01*
X834792Y440500D01*
X834724Y440428D01*
X834713Y440406D01*
X834698Y440388D01*
X834662Y440295D01*
X834620Y440205D01*
X834617Y440181D01*
X834609Y440159D01*
X834604Y440059D01*
X834593Y439961D01*
X834598Y439937D01*
X834597Y439913D01*
X834624Y439817D01*
X834645Y439720D01*
X834657Y439700D01*
X834664Y439676D01*
X834720Y439594D01*
X834771Y439509D01*
X834790Y439493D01*
X834803Y439474D01*
X834883Y439414D01*
X834958Y439349D01*
X834981Y439340D01*
X835000Y439326D01*
X835156Y439265D01*
X839882Y437998D01*
X851627Y431217D01*
X861217Y421627D01*
X867998Y409882D01*
X871509Y396781D01*
X871509Y-16781D01*
X867998Y-29882D01*
X861217Y-41627D01*
X851627Y-51217D01*
X839882Y-57998D01*
X826781Y-61509D01*
X13219Y-61509D01*
X118Y-57998D01*
X-11627Y-51217D01*
X-21217Y-41627D01*
X-27998Y-29882D01*
X-29265Y-25156D01*
X-29275Y-25134D01*
X-29279Y-25110D01*
X-29325Y-25023D01*
X-29366Y-24932D01*
X-29382Y-24914D01*
X-29394Y-24893D01*
X-29466Y-24825D01*
X-29533Y-24752D01*
X-29554Y-24740D01*
X-29572Y-24724D01*
X-29662Y-24682D01*
X-29749Y-24634D01*
X-29773Y-24630D01*
X-29795Y-24620D01*
X-29894Y-24609D01*
X-29992Y-24592D01*
X-30016Y-24596D01*
X-30039Y-24593D01*
X-30137Y-24614D01*
X-30235Y-24629D01*
X-30256Y-24640D01*
X-30280Y-24645D01*
X-30365Y-24696D01*
X-30454Y-24742D01*
X-30470Y-24759D01*
X-30491Y-24771D01*
X-30556Y-24847D01*
X-30625Y-24918D01*
X-30635Y-24940D01*
X-30651Y-24958D01*
X-30688Y-25051D01*
X-30731Y-25140D01*
X-30734Y-25164D01*
X-30743Y-25186D01*
X-30761Y-25353D01*
X-30761Y-55000D01*
X-30747Y-55090D01*
X-30739Y-55181D01*
X-30727Y-55211D01*
X-30722Y-55243D01*
X-30679Y-55323D01*
X-30643Y-55407D01*
X-30617Y-55439D01*
X-30606Y-55460D01*
X-30583Y-55482D01*
X-30538Y-55538D01*
X-20538Y-65538D01*
X-20464Y-65591D01*
X-20395Y-65651D01*
X-20365Y-65663D01*
X-20339Y-65682D01*
X-20252Y-65709D01*
X-20167Y-65743D01*
X-20126Y-65747D01*
X-20103Y-65754D01*
X-20071Y-65753D01*
X-20000Y-65761D01*
X875000Y-65761D01*
X875090Y-65747D01*
G37*
G36*
X-29937Y404598D02*
X-29937Y404598D01*
X-29913Y404597D01*
X-29817Y404624D01*
X-29720Y404645D01*
X-29700Y404657D01*
X-29676Y404664D01*
X-29594Y404720D01*
X-29509Y404771D01*
X-29493Y404790D01*
X-29474Y404803D01*
X-29414Y404883D01*
X-29349Y404958D01*
X-29340Y404981D01*
X-29326Y405000D01*
X-29265Y405156D01*
X-27998Y409882D01*
X-21217Y421627D01*
X-11627Y431217D01*
X118Y437998D01*
X4844Y439265D01*
X4866Y439275D01*
X4890Y439279D01*
X4977Y439325D01*
X5068Y439366D01*
X5086Y439382D01*
X5107Y439394D01*
X5175Y439466D01*
X5248Y439533D01*
X5260Y439554D01*
X5276Y439572D01*
X5318Y439662D01*
X5366Y439749D01*
X5370Y439773D01*
X5380Y439795D01*
X5391Y439894D01*
X5408Y439992D01*
X5404Y440016D01*
X5407Y440039D01*
X5386Y440137D01*
X5371Y440235D01*
X5360Y440256D01*
X5355Y440280D01*
X5304Y440365D01*
X5258Y440454D01*
X5241Y440470D01*
X5229Y440491D01*
X5153Y440556D01*
X5082Y440625D01*
X5060Y440635D01*
X5042Y440651D01*
X4949Y440688D01*
X4860Y440731D01*
X4836Y440734D01*
X4814Y440743D01*
X4647Y440761D01*
X-28080Y440761D01*
X-28100Y440758D01*
X-28119Y440760D01*
X-28221Y440738D01*
X-28323Y440722D01*
X-28340Y440712D01*
X-28360Y440708D01*
X-28449Y440655D01*
X-28540Y440606D01*
X-28554Y440592D01*
X-28571Y440582D01*
X-28638Y440503D01*
X-28710Y440428D01*
X-28718Y440410D01*
X-28731Y440395D01*
X-28770Y440299D01*
X-28813Y440205D01*
X-28815Y440185D01*
X-28823Y440167D01*
X-28841Y440000D01*
X-28841Y439520D01*
X-29520Y438841D01*
X-30000Y438841D01*
X-30020Y438838D01*
X-30039Y438840D01*
X-30141Y438818D01*
X-30243Y438802D01*
X-30260Y438792D01*
X-30280Y438788D01*
X-30369Y438735D01*
X-30460Y438686D01*
X-30474Y438672D01*
X-30491Y438662D01*
X-30558Y438583D01*
X-30630Y438508D01*
X-30638Y438490D01*
X-30651Y438475D01*
X-30690Y438379D01*
X-30733Y438285D01*
X-30735Y438265D01*
X-30743Y438247D01*
X-30761Y438080D01*
X-30761Y405353D01*
X-30757Y405329D01*
X-30760Y405305D01*
X-30738Y405208D01*
X-30722Y405110D01*
X-30710Y405089D01*
X-30705Y405066D01*
X-30653Y404981D01*
X-30606Y404893D01*
X-30589Y404876D01*
X-30576Y404856D01*
X-30500Y404792D01*
X-30428Y404724D01*
X-30406Y404713D01*
X-30388Y404698D01*
X-30295Y404662D01*
X-30205Y404620D01*
X-30181Y404617D01*
X-30159Y404609D01*
X-30059Y404604D01*
X-29961Y404593D01*
X-29937Y404598D01*
G37*
%LPC*%
G36*
X843793Y348931D02*
X843793Y348931D01*
X841562Y349855D01*
X839855Y351562D01*
X838931Y353793D01*
X838931Y356207D01*
X839855Y358438D01*
X841562Y360145D01*
X843793Y361069D01*
X846207Y361069D01*
X848438Y360145D01*
X850145Y358438D01*
X851069Y356207D01*
X851069Y353793D01*
X850145Y351562D01*
X848438Y349855D01*
X846207Y348931D01*
X843793Y348931D01*
G37*
%LPD*%
%LPC*%
G36*
X833793Y313931D02*
X833793Y313931D01*
X831562Y314855D01*
X829855Y316562D01*
X828931Y318793D01*
X828931Y321207D01*
X829855Y323438D01*
X831562Y325145D01*
X833793Y326069D01*
X836207Y326069D01*
X838438Y325145D01*
X840145Y323438D01*
X841069Y321207D01*
X841069Y318793D01*
X840145Y316562D01*
X838438Y314855D01*
X836207Y313931D01*
X833793Y313931D01*
G37*
%LPD*%
%LPC*%
G36*
X130793Y290031D02*
X130793Y290031D01*
X128562Y290955D01*
X126855Y292662D01*
X125931Y294893D01*
X125931Y297307D01*
X126855Y299538D01*
X128562Y301245D01*
X130793Y302169D01*
X133207Y302169D01*
X135438Y301245D01*
X137145Y299538D01*
X138069Y297307D01*
X138069Y294893D01*
X137145Y292662D01*
X135438Y290955D01*
X133207Y290031D01*
X130793Y290031D01*
G37*
%LPD*%
D10*
X132000Y296100D03*
X845000Y355000D03*
X835000Y320000D03*
M02*
