G04 EAGLE Gerber RS-274X export*
G75*
%MOMM*%
%FSLAX34Y34*%
%LPD*%
%IN*%
%IPPOS*%
%AMOC8*
5,1,8,0,0,1.08239X$1,22.5*%
G01*
%ADD10C,0.254000*%


D10*
X-30000Y-10000D02*
X-29810Y-14358D01*
X-29240Y-18682D01*
X-28296Y-22941D01*
X-26985Y-27101D01*
X-25315Y-31131D01*
X-23301Y-35000D01*
X-20958Y-38679D01*
X-18302Y-42139D01*
X-15355Y-45355D01*
X-12139Y-48302D01*
X-8679Y-50958D01*
X-5000Y-53301D01*
X-1131Y-55315D01*
X2899Y-56985D01*
X7059Y-58296D01*
X11318Y-59240D01*
X15642Y-59810D01*
X20000Y-60000D01*
X820000Y-60000D01*
X824358Y-59810D01*
X828682Y-59240D01*
X832941Y-58296D01*
X837101Y-56985D01*
X841131Y-55315D01*
X845000Y-53301D01*
X848679Y-50958D01*
X852139Y-48302D01*
X855355Y-45355D01*
X858302Y-42139D01*
X860958Y-38679D01*
X863301Y-35000D01*
X865315Y-31131D01*
X866985Y-27101D01*
X868296Y-22941D01*
X869240Y-18682D01*
X869810Y-14358D01*
X870000Y-10000D01*
X870000Y390000D01*
X869810Y394358D01*
X869240Y398682D01*
X868296Y402941D01*
X866985Y407101D01*
X865315Y411131D01*
X863301Y415000D01*
X860958Y418679D01*
X858302Y422139D01*
X855355Y425355D01*
X852139Y428302D01*
X848679Y430958D01*
X845000Y433301D01*
X841131Y435315D01*
X837101Y436985D01*
X832941Y438296D01*
X828682Y439240D01*
X824358Y439810D01*
X820000Y440000D01*
X20000Y440000D01*
X15642Y439810D01*
X11318Y439240D01*
X7059Y438296D01*
X2899Y436985D01*
X-1131Y435315D01*
X-5000Y433301D01*
X-8679Y430958D01*
X-12139Y428302D01*
X-15355Y425355D01*
X-18302Y422139D01*
X-20958Y418679D01*
X-23301Y415000D01*
X-25315Y411131D01*
X-26985Y407101D01*
X-28296Y402941D01*
X-29240Y398682D01*
X-29810Y394358D01*
X-30000Y390000D01*
X-30000Y-10000D01*
X411741Y-14545D02*
X411752Y-14866D01*
X411782Y-15185D01*
X411834Y-15501D01*
X411905Y-15814D01*
X411996Y-16121D01*
X412107Y-16422D01*
X412237Y-16715D01*
X412385Y-16999D01*
X412551Y-17273D01*
X412734Y-17536D01*
X412934Y-17786D01*
X413150Y-18024D01*
X413380Y-18247D01*
X413624Y-18454D01*
X413881Y-18646D01*
X414149Y-18821D01*
X414429Y-18978D01*
X414717Y-19117D01*
X415015Y-19238D01*
X415319Y-19339D01*
X415629Y-19420D01*
X415943Y-19481D01*
X416261Y-19522D01*
X416581Y-19543D01*
X416902Y-19543D01*
X417221Y-19522D01*
X417539Y-19481D01*
X417854Y-19420D01*
X418164Y-19339D01*
X418468Y-19238D01*
X418765Y-19117D01*
X419054Y-18978D01*
X419333Y-18821D01*
X419602Y-18646D01*
X419859Y-18454D01*
X420103Y-18247D01*
X420333Y-18024D01*
X420549Y-17786D01*
X420748Y-17536D01*
X420932Y-17273D01*
X421098Y-16999D01*
X421246Y-16715D01*
X421376Y-16422D01*
X421487Y-16121D01*
X421578Y-15814D01*
X421649Y-15501D01*
X421700Y-15185D01*
X421731Y-14866D01*
X421741Y-14545D01*
X421741Y23936D01*
X421731Y24256D01*
X421700Y24575D01*
X421649Y24892D01*
X421578Y25204D01*
X421487Y25511D01*
X421376Y25812D01*
X421246Y26105D01*
X421098Y26389D01*
X420932Y26663D01*
X420748Y26926D01*
X420549Y27177D01*
X420333Y27414D01*
X420103Y27637D01*
X419859Y27845D01*
X419602Y28037D01*
X419333Y28211D01*
X419054Y28369D01*
X418765Y28508D01*
X418468Y28628D01*
X418164Y28729D01*
X417854Y28810D01*
X417539Y28872D01*
X417221Y28913D01*
X416902Y28933D01*
X416581Y28933D01*
X416261Y28913D01*
X415943Y28872D01*
X415629Y28810D01*
X415319Y28729D01*
X415015Y28628D01*
X414717Y28508D01*
X414429Y28369D01*
X414149Y28211D01*
X413881Y28037D01*
X413624Y27845D01*
X413380Y27637D01*
X413150Y27414D01*
X412934Y27177D01*
X412734Y26926D01*
X412551Y26663D01*
X412385Y26389D01*
X412237Y26105D01*
X412107Y25812D01*
X411996Y25511D01*
X411905Y25204D01*
X411834Y24892D01*
X411782Y24575D01*
X411752Y24256D01*
X411741Y23936D01*
X411741Y-14545D01*
X261741Y-14545D02*
X261752Y-14866D01*
X261782Y-15185D01*
X261834Y-15501D01*
X261905Y-15814D01*
X261996Y-16121D01*
X262107Y-16422D01*
X262237Y-16715D01*
X262385Y-16999D01*
X262551Y-17273D01*
X262734Y-17536D01*
X262934Y-17786D01*
X263150Y-18024D01*
X263380Y-18247D01*
X263624Y-18454D01*
X263881Y-18646D01*
X264149Y-18821D01*
X264429Y-18978D01*
X264717Y-19117D01*
X265015Y-19238D01*
X265319Y-19339D01*
X265629Y-19420D01*
X265943Y-19481D01*
X266261Y-19522D01*
X266581Y-19543D01*
X266902Y-19543D01*
X267221Y-19522D01*
X267539Y-19481D01*
X267854Y-19420D01*
X268164Y-19339D01*
X268468Y-19238D01*
X268765Y-19117D01*
X269054Y-18978D01*
X269333Y-18821D01*
X269602Y-18646D01*
X269859Y-18454D01*
X270103Y-18247D01*
X270333Y-18024D01*
X270549Y-17786D01*
X270748Y-17536D01*
X270932Y-17273D01*
X271098Y-16999D01*
X271246Y-16715D01*
X271376Y-16422D01*
X271487Y-16121D01*
X271578Y-15814D01*
X271649Y-15501D01*
X271700Y-15185D01*
X271731Y-14866D01*
X271741Y-14545D01*
X271741Y23936D01*
X271731Y24256D01*
X271700Y24575D01*
X271649Y24892D01*
X271578Y25204D01*
X271487Y25511D01*
X271376Y25812D01*
X271246Y26105D01*
X271098Y26389D01*
X270932Y26663D01*
X270748Y26926D01*
X270549Y27177D01*
X270333Y27414D01*
X270103Y27637D01*
X269859Y27845D01*
X269602Y28037D01*
X269333Y28211D01*
X269054Y28369D01*
X268765Y28508D01*
X268468Y28628D01*
X268164Y28729D01*
X267854Y28810D01*
X267539Y28872D01*
X267221Y28913D01*
X266902Y28933D01*
X266581Y28933D01*
X266261Y28913D01*
X265943Y28872D01*
X265629Y28810D01*
X265319Y28729D01*
X265015Y28628D01*
X264717Y28508D01*
X264429Y28369D01*
X264149Y28211D01*
X263881Y28037D01*
X263624Y27845D01*
X263380Y27637D01*
X263150Y27414D01*
X262934Y27177D01*
X262734Y26926D01*
X262551Y26663D01*
X262385Y26389D01*
X262237Y26105D01*
X262107Y25812D01*
X261996Y25511D01*
X261905Y25204D01*
X261834Y24892D01*
X261782Y24575D01*
X261752Y24256D01*
X261741Y23936D01*
X261741Y-14545D01*
X312478Y-14799D02*
X312488Y-15120D01*
X312519Y-15439D01*
X312570Y-15755D01*
X312641Y-16068D01*
X312733Y-16375D01*
X312843Y-16676D01*
X312973Y-16969D01*
X313121Y-17253D01*
X313287Y-17527D01*
X313471Y-17790D01*
X313671Y-18040D01*
X313886Y-18278D01*
X314116Y-18501D01*
X314360Y-18708D01*
X314617Y-18900D01*
X314886Y-19075D01*
X315165Y-19232D01*
X315454Y-19371D01*
X315751Y-19492D01*
X316055Y-19593D01*
X316365Y-19674D01*
X316680Y-19735D01*
X316998Y-19776D01*
X317318Y-19797D01*
X317638Y-19797D01*
X317958Y-19776D01*
X318276Y-19735D01*
X318590Y-19674D01*
X318900Y-19593D01*
X319205Y-19492D01*
X319502Y-19371D01*
X319791Y-19232D01*
X320070Y-19075D01*
X320338Y-18900D01*
X320595Y-18708D01*
X320839Y-18501D01*
X321070Y-18278D01*
X321285Y-18040D01*
X321485Y-17790D01*
X321668Y-17527D01*
X321834Y-17253D01*
X321983Y-16969D01*
X322112Y-16676D01*
X322223Y-16375D01*
X322314Y-16068D01*
X322386Y-15755D01*
X322437Y-15439D01*
X322468Y-15120D01*
X322478Y-14799D01*
X322478Y23682D01*
X322468Y24002D01*
X322437Y24321D01*
X322386Y24638D01*
X322314Y24950D01*
X322223Y25257D01*
X322112Y25558D01*
X321983Y25851D01*
X321834Y26135D01*
X321668Y26409D01*
X321485Y26672D01*
X321285Y26923D01*
X321070Y27160D01*
X320839Y27383D01*
X320595Y27591D01*
X320338Y27783D01*
X320070Y27957D01*
X319791Y28115D01*
X319502Y28254D01*
X319205Y28374D01*
X318900Y28475D01*
X318590Y28556D01*
X318276Y28618D01*
X317958Y28659D01*
X317638Y28679D01*
X317318Y28679D01*
X316998Y28659D01*
X316680Y28618D01*
X316365Y28556D01*
X316055Y28475D01*
X315751Y28374D01*
X315454Y28254D01*
X315165Y28115D01*
X314886Y27957D01*
X314617Y27783D01*
X314360Y27591D01*
X314116Y27383D01*
X313886Y27160D01*
X313671Y26923D01*
X313471Y26672D01*
X313287Y26409D01*
X313121Y26135D01*
X312973Y25851D01*
X312843Y25558D01*
X312733Y25257D01*
X312641Y24950D01*
X312570Y24638D01*
X312519Y24321D01*
X312488Y24002D01*
X312478Y23682D01*
X312478Y-14799D01*
X363532Y-14545D02*
X363542Y-14866D01*
X363573Y-15185D01*
X363624Y-15501D01*
X363695Y-15814D01*
X363787Y-16121D01*
X363897Y-16422D01*
X364027Y-16715D01*
X364175Y-16999D01*
X364341Y-17273D01*
X364525Y-17536D01*
X364725Y-17786D01*
X364940Y-18024D01*
X365170Y-18247D01*
X365414Y-18454D01*
X365671Y-18646D01*
X365940Y-18821D01*
X366219Y-18978D01*
X366508Y-19117D01*
X366805Y-19238D01*
X367109Y-19339D01*
X367419Y-19420D01*
X367734Y-19481D01*
X368052Y-19522D01*
X368372Y-19543D01*
X368692Y-19543D01*
X369012Y-19522D01*
X369330Y-19481D01*
X369644Y-19420D01*
X369954Y-19339D01*
X370259Y-19238D01*
X370556Y-19117D01*
X370845Y-18978D01*
X371124Y-18821D01*
X371392Y-18646D01*
X371649Y-18454D01*
X371893Y-18247D01*
X372124Y-18024D01*
X372339Y-17786D01*
X372539Y-17536D01*
X372722Y-17273D01*
X372888Y-16999D01*
X373037Y-16715D01*
X373166Y-16422D01*
X373277Y-16121D01*
X373368Y-15814D01*
X373440Y-15501D01*
X373491Y-15185D01*
X373522Y-14866D01*
X373532Y-14545D01*
X373532Y23936D01*
X373522Y24256D01*
X373491Y24575D01*
X373440Y24892D01*
X373368Y25204D01*
X373277Y25511D01*
X373166Y25812D01*
X373037Y26105D01*
X372888Y26389D01*
X372722Y26663D01*
X372539Y26926D01*
X372339Y27177D01*
X372124Y27414D01*
X371893Y27637D01*
X371649Y27845D01*
X371392Y28037D01*
X371124Y28211D01*
X370845Y28369D01*
X370556Y28508D01*
X370259Y28628D01*
X369954Y28729D01*
X369644Y28810D01*
X369330Y28872D01*
X369012Y28913D01*
X368692Y28933D01*
X368372Y28933D01*
X368052Y28913D01*
X367734Y28872D01*
X367419Y28810D01*
X367109Y28729D01*
X366805Y28628D01*
X366508Y28508D01*
X366219Y28369D01*
X365940Y28211D01*
X365671Y28037D01*
X365414Y27845D01*
X365170Y27637D01*
X364940Y27414D01*
X364725Y27177D01*
X364525Y26926D01*
X364341Y26663D01*
X364175Y26389D01*
X364027Y26105D01*
X363897Y25812D01*
X363787Y25511D01*
X363695Y25204D01*
X363624Y24892D01*
X363573Y24575D01*
X363542Y24256D01*
X363532Y23936D01*
X363532Y-14545D01*
M02*
