G04 EAGLE Gerber RS-274X export*
G75*
%MOMM*%
%FSLAX34Y34*%
%LPD*%
%INSolderpaste Top*%
%IPPOS*%
%AMOC8*
5,1,8,0,0,1.08239X$1,22.5*%
G01*
%ADD10C,0.121919*%
%ADD11C,0.220000*%
%ADD12C,0.127000*%
%ADD13C,0.100000*%
%ADD14C,0.152400*%
%ADD15C,0.280000*%
%ADD16C,0.120000*%


D10*
X76435Y241754D02*
X87409Y241754D01*
X87409Y220620D01*
X76435Y220620D01*
X76435Y241754D01*
X76435Y221778D02*
X87409Y221778D01*
X87409Y222936D02*
X76435Y222936D01*
X76435Y224094D02*
X87409Y224094D01*
X87409Y225252D02*
X76435Y225252D01*
X76435Y226410D02*
X87409Y226410D01*
X87409Y227568D02*
X76435Y227568D01*
X76435Y228726D02*
X87409Y228726D01*
X87409Y229884D02*
X76435Y229884D01*
X76435Y231042D02*
X87409Y231042D01*
X87409Y232200D02*
X76435Y232200D01*
X76435Y233358D02*
X87409Y233358D01*
X87409Y234516D02*
X76435Y234516D01*
X76435Y235674D02*
X87409Y235674D01*
X87409Y236832D02*
X76435Y236832D01*
X76435Y237990D02*
X87409Y237990D01*
X87409Y239148D02*
X76435Y239148D01*
X76435Y240306D02*
X87409Y240306D01*
X87409Y241464D02*
X76435Y241464D01*
X64295Y241754D02*
X53321Y241754D01*
X64295Y241754D02*
X64295Y220620D01*
X53321Y220620D01*
X53321Y241754D01*
X53321Y221778D02*
X64295Y221778D01*
X64295Y222936D02*
X53321Y222936D01*
X53321Y224094D02*
X64295Y224094D01*
X64295Y225252D02*
X53321Y225252D01*
X53321Y226410D02*
X64295Y226410D01*
X64295Y227568D02*
X53321Y227568D01*
X53321Y228726D02*
X64295Y228726D01*
X64295Y229884D02*
X53321Y229884D01*
X53321Y231042D02*
X64295Y231042D01*
X64295Y232200D02*
X53321Y232200D01*
X53321Y233358D02*
X64295Y233358D01*
X64295Y234516D02*
X53321Y234516D01*
X53321Y235674D02*
X64295Y235674D01*
X64295Y236832D02*
X53321Y236832D01*
X53321Y237990D02*
X64295Y237990D01*
X64295Y239148D02*
X53321Y239148D01*
X53321Y240306D02*
X64295Y240306D01*
X64295Y241464D02*
X53321Y241464D01*
X41181Y241754D02*
X30207Y241754D01*
X41181Y241754D02*
X41181Y220620D01*
X30207Y220620D01*
X30207Y241754D01*
X30207Y221778D02*
X41181Y221778D01*
X41181Y222936D02*
X30207Y222936D01*
X30207Y224094D02*
X41181Y224094D01*
X41181Y225252D02*
X30207Y225252D01*
X30207Y226410D02*
X41181Y226410D01*
X41181Y227568D02*
X30207Y227568D01*
X30207Y228726D02*
X41181Y228726D01*
X41181Y229884D02*
X30207Y229884D01*
X30207Y231042D02*
X41181Y231042D01*
X41181Y232200D02*
X30207Y232200D01*
X30207Y233358D02*
X41181Y233358D01*
X41181Y234516D02*
X30207Y234516D01*
X30207Y235674D02*
X41181Y235674D01*
X41181Y236832D02*
X30207Y236832D01*
X30207Y237990D02*
X41181Y237990D01*
X41181Y239148D02*
X30207Y239148D01*
X30207Y240306D02*
X41181Y240306D01*
X41181Y241464D02*
X30207Y241464D01*
D11*
X41908Y179109D02*
X75708Y179109D01*
X75708Y159309D01*
X41908Y159309D01*
X41908Y179109D01*
X41908Y161399D02*
X75708Y161399D01*
X75708Y163489D02*
X41908Y163489D01*
X41908Y165579D02*
X75708Y165579D01*
X75708Y167669D02*
X41908Y167669D01*
X41908Y169759D02*
X75708Y169759D01*
X75708Y171849D02*
X41908Y171849D01*
X41908Y173939D02*
X75708Y173939D01*
X75708Y176029D02*
X41908Y176029D01*
X41908Y178119D02*
X75708Y178119D01*
D12*
X48077Y313356D02*
X36647Y313356D01*
X36647Y332406D01*
X48077Y332406D01*
X48077Y313356D01*
X48077Y314562D02*
X36647Y314562D01*
X36647Y315768D02*
X48077Y315768D01*
X48077Y316974D02*
X36647Y316974D01*
X36647Y318180D02*
X48077Y318180D01*
X48077Y319386D02*
X36647Y319386D01*
X36647Y320592D02*
X48077Y320592D01*
X48077Y321798D02*
X36647Y321798D01*
X36647Y323004D02*
X48077Y323004D01*
X48077Y324210D02*
X36647Y324210D01*
X36647Y325416D02*
X48077Y325416D01*
X48077Y326622D02*
X36647Y326622D01*
X36647Y327828D02*
X48077Y327828D01*
X48077Y329034D02*
X36647Y329034D01*
X36647Y330240D02*
X48077Y330240D01*
X48077Y331446D02*
X36647Y331446D01*
X69667Y313356D02*
X81097Y313356D01*
X69667Y313356D02*
X69667Y332406D01*
X81097Y332406D01*
X81097Y313356D01*
X81097Y314562D02*
X69667Y314562D01*
X69667Y315768D02*
X81097Y315768D01*
X81097Y316974D02*
X69667Y316974D01*
X69667Y318180D02*
X81097Y318180D01*
X81097Y319386D02*
X69667Y319386D01*
X69667Y320592D02*
X81097Y320592D01*
X81097Y321798D02*
X69667Y321798D01*
X69667Y323004D02*
X81097Y323004D01*
X81097Y324210D02*
X69667Y324210D01*
X69667Y325416D02*
X81097Y325416D01*
X81097Y326622D02*
X69667Y326622D01*
X69667Y327828D02*
X81097Y327828D01*
X81097Y329034D02*
X69667Y329034D01*
X69667Y330240D02*
X81097Y330240D01*
X81097Y331446D02*
X69667Y331446D01*
X48077Y286877D02*
X36647Y286877D01*
X36647Y305927D01*
X48077Y305927D01*
X48077Y286877D01*
X48077Y288083D02*
X36647Y288083D01*
X36647Y289289D02*
X48077Y289289D01*
X48077Y290495D02*
X36647Y290495D01*
X36647Y291701D02*
X48077Y291701D01*
X48077Y292907D02*
X36647Y292907D01*
X36647Y294113D02*
X48077Y294113D01*
X48077Y295319D02*
X36647Y295319D01*
X36647Y296525D02*
X48077Y296525D01*
X48077Y297731D02*
X36647Y297731D01*
X36647Y298937D02*
X48077Y298937D01*
X48077Y300143D02*
X36647Y300143D01*
X36647Y301349D02*
X48077Y301349D01*
X48077Y302555D02*
X36647Y302555D01*
X36647Y303761D02*
X48077Y303761D01*
X48077Y304967D02*
X36647Y304967D01*
X69667Y286877D02*
X81097Y286877D01*
X69667Y286877D02*
X69667Y305927D01*
X81097Y305927D01*
X81097Y286877D01*
X81097Y288083D02*
X69667Y288083D01*
X69667Y289289D02*
X81097Y289289D01*
X81097Y290495D02*
X69667Y290495D01*
X69667Y291701D02*
X81097Y291701D01*
X81097Y292907D02*
X69667Y292907D01*
X69667Y294113D02*
X81097Y294113D01*
X81097Y295319D02*
X69667Y295319D01*
X69667Y296525D02*
X81097Y296525D01*
X81097Y297731D02*
X69667Y297731D01*
X69667Y298937D02*
X81097Y298937D01*
X81097Y300143D02*
X69667Y300143D01*
X69667Y301349D02*
X81097Y301349D01*
X81097Y302555D02*
X69667Y302555D01*
X69667Y303761D02*
X81097Y303761D01*
X81097Y304967D02*
X69667Y304967D01*
X48140Y260080D02*
X36710Y260080D01*
X36710Y279130D01*
X48140Y279130D01*
X48140Y260080D01*
X48140Y261286D02*
X36710Y261286D01*
X36710Y262492D02*
X48140Y262492D01*
X48140Y263698D02*
X36710Y263698D01*
X36710Y264904D02*
X48140Y264904D01*
X48140Y266110D02*
X36710Y266110D01*
X36710Y267316D02*
X48140Y267316D01*
X48140Y268522D02*
X36710Y268522D01*
X36710Y269728D02*
X48140Y269728D01*
X48140Y270934D02*
X36710Y270934D01*
X36710Y272140D02*
X48140Y272140D01*
X48140Y273346D02*
X36710Y273346D01*
X36710Y274552D02*
X48140Y274552D01*
X48140Y275758D02*
X36710Y275758D01*
X36710Y276964D02*
X48140Y276964D01*
X48140Y278170D02*
X36710Y278170D01*
X69730Y260080D02*
X81160Y260080D01*
X69730Y260080D02*
X69730Y279130D01*
X81160Y279130D01*
X81160Y260080D01*
X81160Y261286D02*
X69730Y261286D01*
X69730Y262492D02*
X81160Y262492D01*
X81160Y263698D02*
X69730Y263698D01*
X69730Y264904D02*
X81160Y264904D01*
X81160Y266110D02*
X69730Y266110D01*
X69730Y267316D02*
X81160Y267316D01*
X81160Y268522D02*
X69730Y268522D01*
X69730Y269728D02*
X81160Y269728D01*
X81160Y270934D02*
X69730Y270934D01*
X69730Y272140D02*
X81160Y272140D01*
X81160Y273346D02*
X69730Y273346D01*
X69730Y274552D02*
X81160Y274552D01*
X81160Y275758D02*
X69730Y275758D01*
X69730Y276964D02*
X81160Y276964D01*
X81160Y278170D02*
X69730Y278170D01*
D13*
X429005Y95606D02*
X429005Y86606D01*
X429005Y95606D02*
X442005Y95606D01*
X442005Y86606D01*
X429005Y86606D01*
X429005Y87556D02*
X442005Y87556D01*
X442005Y88506D02*
X429005Y88506D01*
X429005Y89456D02*
X442005Y89456D01*
X442005Y90406D02*
X429005Y90406D01*
X429005Y91356D02*
X442005Y91356D01*
X442005Y92306D02*
X429005Y92306D01*
X429005Y93256D02*
X442005Y93256D01*
X442005Y94206D02*
X429005Y94206D01*
X429005Y95156D02*
X442005Y95156D01*
X407005Y86106D02*
X407005Y77106D01*
X407005Y86106D02*
X420005Y86106D01*
X420005Y77106D01*
X407005Y77106D01*
X407005Y78056D02*
X420005Y78056D01*
X420005Y79006D02*
X407005Y79006D01*
X407005Y79956D02*
X420005Y79956D01*
X420005Y80906D02*
X407005Y80906D01*
X407005Y81856D02*
X420005Y81856D01*
X420005Y82806D02*
X407005Y82806D01*
X407005Y83756D02*
X420005Y83756D01*
X420005Y84706D02*
X407005Y84706D01*
X407005Y85656D02*
X420005Y85656D01*
X407005Y96106D02*
X407005Y105106D01*
X420005Y105106D01*
X420005Y96106D01*
X407005Y96106D01*
X407005Y97056D02*
X420005Y97056D01*
X420005Y98006D02*
X407005Y98006D01*
X407005Y98956D02*
X420005Y98956D01*
X420005Y99906D02*
X407005Y99906D01*
X407005Y100856D02*
X420005Y100856D01*
X420005Y101806D02*
X407005Y101806D01*
X407005Y102756D02*
X420005Y102756D01*
X420005Y103706D02*
X407005Y103706D01*
X407005Y104656D02*
X420005Y104656D01*
X386333Y140200D02*
X386333Y149200D01*
X399333Y149200D01*
X399333Y140200D01*
X386333Y140200D01*
X386333Y141150D02*
X399333Y141150D01*
X399333Y142100D02*
X386333Y142100D01*
X386333Y143050D02*
X399333Y143050D01*
X399333Y144000D02*
X386333Y144000D01*
X386333Y144950D02*
X399333Y144950D01*
X399333Y145900D02*
X386333Y145900D01*
X386333Y146850D02*
X399333Y146850D01*
X399333Y147800D02*
X386333Y147800D01*
X386333Y148750D02*
X399333Y148750D01*
X364333Y139700D02*
X364333Y130700D01*
X364333Y139700D02*
X377333Y139700D01*
X377333Y130700D01*
X364333Y130700D01*
X364333Y131650D02*
X377333Y131650D01*
X377333Y132600D02*
X364333Y132600D01*
X364333Y133550D02*
X377333Y133550D01*
X377333Y134500D02*
X364333Y134500D01*
X364333Y135450D02*
X377333Y135450D01*
X377333Y136400D02*
X364333Y136400D01*
X364333Y137350D02*
X377333Y137350D01*
X377333Y138300D02*
X364333Y138300D01*
X364333Y139250D02*
X377333Y139250D01*
X364333Y149700D02*
X364333Y158700D01*
X377333Y158700D01*
X377333Y149700D01*
X364333Y149700D01*
X364333Y150650D02*
X377333Y150650D01*
X377333Y151600D02*
X364333Y151600D01*
X364333Y152550D02*
X377333Y152550D01*
X377333Y153500D02*
X364333Y153500D01*
X364333Y154450D02*
X377333Y154450D01*
X377333Y155400D02*
X364333Y155400D01*
X364333Y156350D02*
X377333Y156350D01*
X377333Y157300D02*
X364333Y157300D01*
X364333Y158250D02*
X377333Y158250D01*
D14*
X94429Y371353D02*
X94429Y387609D01*
X94429Y371353D02*
X80713Y371353D01*
X80713Y387609D01*
X94429Y387609D01*
X94429Y372801D02*
X80713Y372801D01*
X80713Y374249D02*
X94429Y374249D01*
X94429Y375697D02*
X80713Y375697D01*
X80713Y377145D02*
X94429Y377145D01*
X94429Y378593D02*
X80713Y378593D01*
X80713Y380041D02*
X94429Y380041D01*
X94429Y381489D02*
X80713Y381489D01*
X80713Y382937D02*
X94429Y382937D01*
X94429Y384385D02*
X80713Y384385D01*
X80713Y385833D02*
X94429Y385833D01*
X94429Y387281D02*
X80713Y387281D01*
X134976Y387236D02*
X134976Y370980D01*
X121260Y370980D01*
X121260Y387236D01*
X134976Y387236D01*
X134976Y372428D02*
X121260Y372428D01*
X121260Y373876D02*
X134976Y373876D01*
X134976Y375324D02*
X121260Y375324D01*
X121260Y376772D02*
X134976Y376772D01*
X134976Y378220D02*
X121260Y378220D01*
X121260Y379668D02*
X134976Y379668D01*
X134976Y381116D02*
X121260Y381116D01*
X121260Y382564D02*
X134976Y382564D01*
X134976Y384012D02*
X121260Y384012D01*
X121260Y385460D02*
X134976Y385460D01*
X134976Y386908D02*
X121260Y386908D01*
D15*
X156001Y146251D02*
X156001Y121051D01*
X130801Y121051D01*
X130801Y146251D01*
X156001Y146251D01*
X156001Y123711D02*
X130801Y123711D01*
X130801Y126371D02*
X156001Y126371D01*
X156001Y129031D02*
X130801Y129031D01*
X130801Y131691D02*
X156001Y131691D01*
X156001Y134351D02*
X130801Y134351D01*
X130801Y137011D02*
X156001Y137011D01*
X156001Y139671D02*
X130801Y139671D01*
X130801Y142331D02*
X156001Y142331D01*
X156001Y144991D02*
X130801Y144991D01*
X215501Y146251D02*
X215501Y121051D01*
X190301Y121051D01*
X190301Y146251D01*
X215501Y146251D01*
X215501Y123711D02*
X190301Y123711D01*
X190301Y126371D02*
X215501Y126371D01*
X215501Y129031D02*
X190301Y129031D01*
X190301Y131691D02*
X215501Y131691D01*
X215501Y134351D02*
X190301Y134351D01*
X190301Y137011D02*
X215501Y137011D01*
X215501Y139671D02*
X190301Y139671D01*
X190301Y142331D02*
X215501Y142331D01*
X215501Y144991D02*
X190301Y144991D01*
D13*
X96846Y329325D02*
X96846Y333325D01*
X104846Y333325D01*
X104846Y329325D01*
X96846Y329325D01*
X96846Y330275D02*
X104846Y330275D01*
X104846Y331225D02*
X96846Y331225D01*
X96846Y332175D02*
X104846Y332175D01*
X104846Y333125D02*
X96846Y333125D01*
X96846Y325325D02*
X96846Y321325D01*
X96846Y325325D02*
X104846Y325325D01*
X104846Y321325D01*
X96846Y321325D01*
X96846Y322275D02*
X104846Y322275D01*
X104846Y323225D02*
X96846Y323225D01*
X96846Y324175D02*
X104846Y324175D01*
X104846Y325125D02*
X96846Y325125D01*
X96846Y317325D02*
X96846Y313325D01*
X96846Y317325D02*
X104846Y317325D01*
X104846Y313325D01*
X96846Y313325D01*
X96846Y314275D02*
X104846Y314275D01*
X104846Y315225D02*
X96846Y315225D01*
X96846Y316175D02*
X104846Y316175D01*
X104846Y317125D02*
X96846Y317125D01*
X96846Y308825D02*
X96846Y304825D01*
X96846Y308825D02*
X104846Y308825D01*
X104846Y304825D01*
X96846Y304825D01*
X96846Y305775D02*
X104846Y305775D01*
X104846Y306725D02*
X96846Y306725D01*
X96846Y307675D02*
X104846Y307675D01*
X104846Y308625D02*
X96846Y308625D01*
X112846Y309325D02*
X112846Y305325D01*
X112846Y309325D02*
X120846Y309325D01*
X120846Y305325D01*
X112846Y305325D01*
X112846Y306275D02*
X120846Y306275D01*
X120846Y307225D02*
X112846Y307225D01*
X112846Y308175D02*
X120846Y308175D01*
X120846Y309125D02*
X112846Y309125D01*
X112846Y313325D02*
X112846Y317325D01*
X120846Y317325D01*
X120846Y313325D01*
X112846Y313325D01*
X112846Y314275D02*
X120846Y314275D01*
X120846Y315225D02*
X112846Y315225D01*
X112846Y316175D02*
X120846Y316175D01*
X120846Y317125D02*
X112846Y317125D01*
X112846Y321325D02*
X112846Y325325D01*
X120846Y325325D01*
X120846Y321325D01*
X112846Y321325D01*
X112846Y322275D02*
X120846Y322275D01*
X120846Y323225D02*
X112846Y323225D01*
X112846Y324175D02*
X120846Y324175D01*
X120846Y325125D02*
X112846Y325125D01*
X112846Y329325D02*
X112846Y333325D01*
X120846Y333325D01*
X120846Y329325D01*
X112846Y329325D01*
X112846Y330275D02*
X120846Y330275D01*
X120846Y331225D02*
X112846Y331225D01*
X112846Y332175D02*
X120846Y332175D01*
X120846Y333125D02*
X112846Y333125D01*
X130565Y333579D02*
X130565Y329579D01*
X130565Y333579D02*
X138565Y333579D01*
X138565Y329579D01*
X130565Y329579D01*
X130565Y330529D02*
X138565Y330529D01*
X138565Y331479D02*
X130565Y331479D01*
X130565Y332429D02*
X138565Y332429D01*
X138565Y333379D02*
X130565Y333379D01*
X130565Y325579D02*
X130565Y321579D01*
X130565Y325579D02*
X138565Y325579D01*
X138565Y321579D01*
X130565Y321579D01*
X130565Y322529D02*
X138565Y322529D01*
X138565Y323479D02*
X130565Y323479D01*
X130565Y324429D02*
X138565Y324429D01*
X138565Y325379D02*
X130565Y325379D01*
X130565Y317579D02*
X130565Y313579D01*
X130565Y317579D02*
X138565Y317579D01*
X138565Y313579D01*
X130565Y313579D01*
X130565Y314529D02*
X138565Y314529D01*
X138565Y315479D02*
X130565Y315479D01*
X130565Y316429D02*
X138565Y316429D01*
X138565Y317379D02*
X130565Y317379D01*
X130565Y309079D02*
X130565Y305079D01*
X130565Y309079D02*
X138565Y309079D01*
X138565Y305079D01*
X130565Y305079D01*
X130565Y306029D02*
X138565Y306029D01*
X138565Y306979D02*
X130565Y306979D01*
X130565Y307929D02*
X138565Y307929D01*
X138565Y308879D02*
X130565Y308879D01*
X146565Y309579D02*
X146565Y305579D01*
X146565Y309579D02*
X154565Y309579D01*
X154565Y305579D01*
X146565Y305579D01*
X146565Y306529D02*
X154565Y306529D01*
X154565Y307479D02*
X146565Y307479D01*
X146565Y308429D02*
X154565Y308429D01*
X154565Y309379D02*
X146565Y309379D01*
X146565Y313579D02*
X146565Y317579D01*
X154565Y317579D01*
X154565Y313579D01*
X146565Y313579D01*
X146565Y314529D02*
X154565Y314529D01*
X154565Y315479D02*
X146565Y315479D01*
X146565Y316429D02*
X154565Y316429D01*
X154565Y317379D02*
X146565Y317379D01*
X146565Y321579D02*
X146565Y325579D01*
X154565Y325579D01*
X154565Y321579D01*
X146565Y321579D01*
X146565Y322529D02*
X154565Y322529D01*
X154565Y323479D02*
X146565Y323479D01*
X146565Y324429D02*
X154565Y324429D01*
X154565Y325379D02*
X146565Y325379D01*
X146565Y329579D02*
X146565Y333579D01*
X154565Y333579D01*
X154565Y329579D01*
X146565Y329579D01*
X146565Y330529D02*
X154565Y330529D01*
X154565Y331479D02*
X146565Y331479D01*
X146565Y332429D02*
X154565Y332429D01*
X154565Y333379D02*
X146565Y333379D01*
D16*
X359693Y345839D02*
X359693Y367499D01*
X370493Y367499D01*
X370493Y345839D01*
X359693Y345839D01*
X359693Y346979D02*
X370493Y346979D01*
X370493Y348119D02*
X359693Y348119D01*
X359693Y349259D02*
X370493Y349259D01*
X370493Y350399D02*
X359693Y350399D01*
X359693Y351539D02*
X370493Y351539D01*
X370493Y352679D02*
X359693Y352679D01*
X359693Y353819D02*
X370493Y353819D01*
X370493Y354959D02*
X359693Y354959D01*
X359693Y356099D02*
X370493Y356099D01*
X370493Y357239D02*
X359693Y357239D01*
X359693Y358379D02*
X370493Y358379D01*
X370493Y359519D02*
X359693Y359519D01*
X359693Y360659D02*
X370493Y360659D01*
X370493Y361799D02*
X359693Y361799D01*
X359693Y362939D02*
X370493Y362939D01*
X370493Y364079D02*
X359693Y364079D01*
X359693Y365219D02*
X370493Y365219D01*
X370493Y366359D02*
X359693Y366359D01*
X359693Y367499D02*
X370493Y367499D01*
X339693Y367499D02*
X339693Y345839D01*
X339693Y367499D02*
X350493Y367499D01*
X350493Y345839D01*
X339693Y345839D01*
X339693Y346979D02*
X350493Y346979D01*
X350493Y348119D02*
X339693Y348119D01*
X339693Y349259D02*
X350493Y349259D01*
X350493Y350399D02*
X339693Y350399D01*
X339693Y351539D02*
X350493Y351539D01*
X350493Y352679D02*
X339693Y352679D01*
X339693Y353819D02*
X350493Y353819D01*
X350493Y354959D02*
X339693Y354959D01*
X339693Y356099D02*
X350493Y356099D01*
X350493Y357239D02*
X339693Y357239D01*
X339693Y358379D02*
X350493Y358379D01*
X350493Y359519D02*
X339693Y359519D01*
X339693Y360659D02*
X350493Y360659D01*
X350493Y361799D02*
X339693Y361799D01*
X339693Y362939D02*
X350493Y362939D01*
X350493Y364079D02*
X339693Y364079D01*
X339693Y365219D02*
X350493Y365219D01*
X350493Y366359D02*
X339693Y366359D01*
X339693Y367499D02*
X350493Y367499D01*
X319693Y367499D02*
X319693Y345839D01*
X319693Y367499D02*
X330493Y367499D01*
X330493Y345839D01*
X319693Y345839D01*
X319693Y346979D02*
X330493Y346979D01*
X330493Y348119D02*
X319693Y348119D01*
X319693Y349259D02*
X330493Y349259D01*
X330493Y350399D02*
X319693Y350399D01*
X319693Y351539D02*
X330493Y351539D01*
X330493Y352679D02*
X319693Y352679D01*
X319693Y353819D02*
X330493Y353819D01*
X330493Y354959D02*
X319693Y354959D01*
X319693Y356099D02*
X330493Y356099D01*
X330493Y357239D02*
X319693Y357239D01*
X319693Y358379D02*
X330493Y358379D01*
X330493Y359519D02*
X319693Y359519D01*
X319693Y360659D02*
X330493Y360659D01*
X330493Y361799D02*
X319693Y361799D01*
X319693Y362939D02*
X330493Y362939D01*
X330493Y364079D02*
X319693Y364079D01*
X319693Y365219D02*
X330493Y365219D01*
X330493Y366359D02*
X319693Y366359D01*
X319693Y367499D02*
X330493Y367499D01*
X299693Y367499D02*
X299693Y345839D01*
X299693Y367499D02*
X310493Y367499D01*
X310493Y345839D01*
X299693Y345839D01*
X299693Y346979D02*
X310493Y346979D01*
X310493Y348119D02*
X299693Y348119D01*
X299693Y349259D02*
X310493Y349259D01*
X310493Y350399D02*
X299693Y350399D01*
X299693Y351539D02*
X310493Y351539D01*
X310493Y352679D02*
X299693Y352679D01*
X299693Y353819D02*
X310493Y353819D01*
X310493Y354959D02*
X299693Y354959D01*
X299693Y356099D02*
X310493Y356099D01*
X310493Y357239D02*
X299693Y357239D01*
X299693Y358379D02*
X310493Y358379D01*
X310493Y359519D02*
X299693Y359519D01*
X299693Y360659D02*
X310493Y360659D01*
X310493Y361799D02*
X299693Y361799D01*
X299693Y362939D02*
X310493Y362939D01*
X310493Y364079D02*
X299693Y364079D01*
X299693Y365219D02*
X310493Y365219D01*
X310493Y366359D02*
X299693Y366359D01*
X299693Y367499D02*
X310493Y367499D01*
X279693Y367499D02*
X279693Y345839D01*
X279693Y367499D02*
X290493Y367499D01*
X290493Y345839D01*
X279693Y345839D01*
X279693Y346979D02*
X290493Y346979D01*
X290493Y348119D02*
X279693Y348119D01*
X279693Y349259D02*
X290493Y349259D01*
X290493Y350399D02*
X279693Y350399D01*
X279693Y351539D02*
X290493Y351539D01*
X290493Y352679D02*
X279693Y352679D01*
X279693Y353819D02*
X290493Y353819D01*
X290493Y354959D02*
X279693Y354959D01*
X279693Y356099D02*
X290493Y356099D01*
X290493Y357239D02*
X279693Y357239D01*
X279693Y358379D02*
X290493Y358379D01*
X290493Y359519D02*
X279693Y359519D01*
X279693Y360659D02*
X290493Y360659D01*
X290493Y361799D02*
X279693Y361799D01*
X279693Y362939D02*
X290493Y362939D01*
X290493Y364079D02*
X279693Y364079D01*
X279693Y365219D02*
X290493Y365219D01*
X290493Y366359D02*
X279693Y366359D01*
X279693Y367499D02*
X290493Y367499D01*
X259693Y367499D02*
X259693Y345839D01*
X259693Y367499D02*
X270493Y367499D01*
X270493Y345839D01*
X259693Y345839D01*
X259693Y346979D02*
X270493Y346979D01*
X270493Y348119D02*
X259693Y348119D01*
X259693Y349259D02*
X270493Y349259D01*
X270493Y350399D02*
X259693Y350399D01*
X259693Y351539D02*
X270493Y351539D01*
X270493Y352679D02*
X259693Y352679D01*
X259693Y353819D02*
X270493Y353819D01*
X270493Y354959D02*
X259693Y354959D01*
X259693Y356099D02*
X270493Y356099D01*
X270493Y357239D02*
X259693Y357239D01*
X259693Y358379D02*
X270493Y358379D01*
X270493Y359519D02*
X259693Y359519D01*
X259693Y360659D02*
X270493Y360659D01*
X270493Y361799D02*
X259693Y361799D01*
X259693Y362939D02*
X270493Y362939D01*
X270493Y364079D02*
X259693Y364079D01*
X259693Y365219D02*
X270493Y365219D01*
X270493Y366359D02*
X259693Y366359D01*
X259693Y367499D02*
X270493Y367499D01*
X239693Y367499D02*
X239693Y345839D01*
X239693Y367499D02*
X250493Y367499D01*
X250493Y345839D01*
X239693Y345839D01*
X239693Y346979D02*
X250493Y346979D01*
X250493Y348119D02*
X239693Y348119D01*
X239693Y349259D02*
X250493Y349259D01*
X250493Y350399D02*
X239693Y350399D01*
X239693Y351539D02*
X250493Y351539D01*
X250493Y352679D02*
X239693Y352679D01*
X239693Y353819D02*
X250493Y353819D01*
X250493Y354959D02*
X239693Y354959D01*
X239693Y356099D02*
X250493Y356099D01*
X250493Y357239D02*
X239693Y357239D01*
X239693Y358379D02*
X250493Y358379D01*
X250493Y359519D02*
X239693Y359519D01*
X239693Y360659D02*
X250493Y360659D01*
X250493Y361799D02*
X239693Y361799D01*
X239693Y362939D02*
X250493Y362939D01*
X250493Y364079D02*
X239693Y364079D01*
X239693Y365219D02*
X250493Y365219D01*
X250493Y366359D02*
X239693Y366359D01*
X239693Y367499D02*
X250493Y367499D01*
X219693Y367499D02*
X219693Y345839D01*
X219693Y367499D02*
X230493Y367499D01*
X230493Y345839D01*
X219693Y345839D01*
X219693Y346979D02*
X230493Y346979D01*
X230493Y348119D02*
X219693Y348119D01*
X219693Y349259D02*
X230493Y349259D01*
X230493Y350399D02*
X219693Y350399D01*
X219693Y351539D02*
X230493Y351539D01*
X230493Y352679D02*
X219693Y352679D01*
X219693Y353819D02*
X230493Y353819D01*
X230493Y354959D02*
X219693Y354959D01*
X219693Y356099D02*
X230493Y356099D01*
X230493Y357239D02*
X219693Y357239D01*
X219693Y358379D02*
X230493Y358379D01*
X230493Y359519D02*
X219693Y359519D01*
X219693Y360659D02*
X230493Y360659D01*
X230493Y361799D02*
X219693Y361799D01*
X219693Y362939D02*
X230493Y362939D01*
X230493Y364079D02*
X219693Y364079D01*
X219693Y365219D02*
X230493Y365219D01*
X230493Y366359D02*
X219693Y366359D01*
X219693Y367499D02*
X230493Y367499D01*
X359693Y213659D02*
X359693Y191999D01*
X359693Y213659D02*
X370493Y213659D01*
X370493Y191999D01*
X359693Y191999D01*
X359693Y193139D02*
X370493Y193139D01*
X370493Y194279D02*
X359693Y194279D01*
X359693Y195419D02*
X370493Y195419D01*
X370493Y196559D02*
X359693Y196559D01*
X359693Y197699D02*
X370493Y197699D01*
X370493Y198839D02*
X359693Y198839D01*
X359693Y199979D02*
X370493Y199979D01*
X370493Y201119D02*
X359693Y201119D01*
X359693Y202259D02*
X370493Y202259D01*
X370493Y203399D02*
X359693Y203399D01*
X359693Y204539D02*
X370493Y204539D01*
X370493Y205679D02*
X359693Y205679D01*
X359693Y206819D02*
X370493Y206819D01*
X370493Y207959D02*
X359693Y207959D01*
X359693Y209099D02*
X370493Y209099D01*
X370493Y210239D02*
X359693Y210239D01*
X359693Y211379D02*
X370493Y211379D01*
X370493Y212519D02*
X359693Y212519D01*
X359693Y213659D02*
X370493Y213659D01*
X339693Y213659D02*
X339693Y191999D01*
X339693Y213659D02*
X350493Y213659D01*
X350493Y191999D01*
X339693Y191999D01*
X339693Y193139D02*
X350493Y193139D01*
X350493Y194279D02*
X339693Y194279D01*
X339693Y195419D02*
X350493Y195419D01*
X350493Y196559D02*
X339693Y196559D01*
X339693Y197699D02*
X350493Y197699D01*
X350493Y198839D02*
X339693Y198839D01*
X339693Y199979D02*
X350493Y199979D01*
X350493Y201119D02*
X339693Y201119D01*
X339693Y202259D02*
X350493Y202259D01*
X350493Y203399D02*
X339693Y203399D01*
X339693Y204539D02*
X350493Y204539D01*
X350493Y205679D02*
X339693Y205679D01*
X339693Y206819D02*
X350493Y206819D01*
X350493Y207959D02*
X339693Y207959D01*
X339693Y209099D02*
X350493Y209099D01*
X350493Y210239D02*
X339693Y210239D01*
X339693Y211379D02*
X350493Y211379D01*
X350493Y212519D02*
X339693Y212519D01*
X339693Y213659D02*
X350493Y213659D01*
X319693Y213659D02*
X319693Y191999D01*
X319693Y213659D02*
X330493Y213659D01*
X330493Y191999D01*
X319693Y191999D01*
X319693Y193139D02*
X330493Y193139D01*
X330493Y194279D02*
X319693Y194279D01*
X319693Y195419D02*
X330493Y195419D01*
X330493Y196559D02*
X319693Y196559D01*
X319693Y197699D02*
X330493Y197699D01*
X330493Y198839D02*
X319693Y198839D01*
X319693Y199979D02*
X330493Y199979D01*
X330493Y201119D02*
X319693Y201119D01*
X319693Y202259D02*
X330493Y202259D01*
X330493Y203399D02*
X319693Y203399D01*
X319693Y204539D02*
X330493Y204539D01*
X330493Y205679D02*
X319693Y205679D01*
X319693Y206819D02*
X330493Y206819D01*
X330493Y207959D02*
X319693Y207959D01*
X319693Y209099D02*
X330493Y209099D01*
X330493Y210239D02*
X319693Y210239D01*
X319693Y211379D02*
X330493Y211379D01*
X330493Y212519D02*
X319693Y212519D01*
X319693Y213659D02*
X330493Y213659D01*
X299693Y213659D02*
X299693Y191999D01*
X299693Y213659D02*
X310493Y213659D01*
X310493Y191999D01*
X299693Y191999D01*
X299693Y193139D02*
X310493Y193139D01*
X310493Y194279D02*
X299693Y194279D01*
X299693Y195419D02*
X310493Y195419D01*
X310493Y196559D02*
X299693Y196559D01*
X299693Y197699D02*
X310493Y197699D01*
X310493Y198839D02*
X299693Y198839D01*
X299693Y199979D02*
X310493Y199979D01*
X310493Y201119D02*
X299693Y201119D01*
X299693Y202259D02*
X310493Y202259D01*
X310493Y203399D02*
X299693Y203399D01*
X299693Y204539D02*
X310493Y204539D01*
X310493Y205679D02*
X299693Y205679D01*
X299693Y206819D02*
X310493Y206819D01*
X310493Y207959D02*
X299693Y207959D01*
X299693Y209099D02*
X310493Y209099D01*
X310493Y210239D02*
X299693Y210239D01*
X299693Y211379D02*
X310493Y211379D01*
X310493Y212519D02*
X299693Y212519D01*
X299693Y213659D02*
X310493Y213659D01*
X279693Y213659D02*
X279693Y191999D01*
X279693Y213659D02*
X290493Y213659D01*
X290493Y191999D01*
X279693Y191999D01*
X279693Y193139D02*
X290493Y193139D01*
X290493Y194279D02*
X279693Y194279D01*
X279693Y195419D02*
X290493Y195419D01*
X290493Y196559D02*
X279693Y196559D01*
X279693Y197699D02*
X290493Y197699D01*
X290493Y198839D02*
X279693Y198839D01*
X279693Y199979D02*
X290493Y199979D01*
X290493Y201119D02*
X279693Y201119D01*
X279693Y202259D02*
X290493Y202259D01*
X290493Y203399D02*
X279693Y203399D01*
X279693Y204539D02*
X290493Y204539D01*
X290493Y205679D02*
X279693Y205679D01*
X279693Y206819D02*
X290493Y206819D01*
X290493Y207959D02*
X279693Y207959D01*
X279693Y209099D02*
X290493Y209099D01*
X290493Y210239D02*
X279693Y210239D01*
X279693Y211379D02*
X290493Y211379D01*
X290493Y212519D02*
X279693Y212519D01*
X279693Y213659D02*
X290493Y213659D01*
X259693Y213659D02*
X259693Y191999D01*
X259693Y213659D02*
X270493Y213659D01*
X270493Y191999D01*
X259693Y191999D01*
X259693Y193139D02*
X270493Y193139D01*
X270493Y194279D02*
X259693Y194279D01*
X259693Y195419D02*
X270493Y195419D01*
X270493Y196559D02*
X259693Y196559D01*
X259693Y197699D02*
X270493Y197699D01*
X270493Y198839D02*
X259693Y198839D01*
X259693Y199979D02*
X270493Y199979D01*
X270493Y201119D02*
X259693Y201119D01*
X259693Y202259D02*
X270493Y202259D01*
X270493Y203399D02*
X259693Y203399D01*
X259693Y204539D02*
X270493Y204539D01*
X270493Y205679D02*
X259693Y205679D01*
X259693Y206819D02*
X270493Y206819D01*
X270493Y207959D02*
X259693Y207959D01*
X259693Y209099D02*
X270493Y209099D01*
X270493Y210239D02*
X259693Y210239D01*
X259693Y211379D02*
X270493Y211379D01*
X270493Y212519D02*
X259693Y212519D01*
X259693Y213659D02*
X270493Y213659D01*
X239693Y213659D02*
X239693Y191999D01*
X239693Y213659D02*
X250493Y213659D01*
X250493Y191999D01*
X239693Y191999D01*
X239693Y193139D02*
X250493Y193139D01*
X250493Y194279D02*
X239693Y194279D01*
X239693Y195419D02*
X250493Y195419D01*
X250493Y196559D02*
X239693Y196559D01*
X239693Y197699D02*
X250493Y197699D01*
X250493Y198839D02*
X239693Y198839D01*
X239693Y199979D02*
X250493Y199979D01*
X250493Y201119D02*
X239693Y201119D01*
X239693Y202259D02*
X250493Y202259D01*
X250493Y203399D02*
X239693Y203399D01*
X239693Y204539D02*
X250493Y204539D01*
X250493Y205679D02*
X239693Y205679D01*
X239693Y206819D02*
X250493Y206819D01*
X250493Y207959D02*
X239693Y207959D01*
X239693Y209099D02*
X250493Y209099D01*
X250493Y210239D02*
X239693Y210239D01*
X239693Y211379D02*
X250493Y211379D01*
X250493Y212519D02*
X239693Y212519D01*
X239693Y213659D02*
X250493Y213659D01*
X219693Y213659D02*
X219693Y191999D01*
X219693Y213659D02*
X230493Y213659D01*
X230493Y191999D01*
X219693Y191999D01*
X219693Y193139D02*
X230493Y193139D01*
X230493Y194279D02*
X219693Y194279D01*
X219693Y195419D02*
X230493Y195419D01*
X230493Y196559D02*
X219693Y196559D01*
X219693Y197699D02*
X230493Y197699D01*
X230493Y198839D02*
X219693Y198839D01*
X219693Y199979D02*
X230493Y199979D01*
X230493Y201119D02*
X219693Y201119D01*
X219693Y202259D02*
X230493Y202259D01*
X230493Y203399D02*
X219693Y203399D01*
X219693Y204539D02*
X230493Y204539D01*
X230493Y205679D02*
X219693Y205679D01*
X219693Y206819D02*
X230493Y206819D01*
X230493Y207959D02*
X219693Y207959D01*
X219693Y209099D02*
X230493Y209099D01*
X230493Y210239D02*
X219693Y210239D01*
X219693Y211379D02*
X230493Y211379D01*
X230493Y212519D02*
X219693Y212519D01*
X219693Y213659D02*
X230493Y213659D01*
D13*
X182443Y302387D02*
X173443Y302387D01*
X173443Y312387D01*
X182443Y312387D01*
X182443Y302387D01*
X182443Y303337D02*
X173443Y303337D01*
X173443Y304287D02*
X182443Y304287D01*
X182443Y305237D02*
X173443Y305237D01*
X173443Y306187D02*
X182443Y306187D01*
X182443Y307137D02*
X173443Y307137D01*
X173443Y308087D02*
X182443Y308087D01*
X182443Y309037D02*
X173443Y309037D01*
X173443Y309987D02*
X182443Y309987D01*
X182443Y310937D02*
X173443Y310937D01*
X173443Y311887D02*
X182443Y311887D01*
X190443Y302387D02*
X199443Y302387D01*
X190443Y302387D02*
X190443Y312387D01*
X199443Y312387D01*
X199443Y302387D01*
X199443Y303337D02*
X190443Y303337D01*
X190443Y304287D02*
X199443Y304287D01*
X199443Y305237D02*
X190443Y305237D01*
X190443Y306187D02*
X199443Y306187D01*
X199443Y307137D02*
X190443Y307137D01*
X190443Y308087D02*
X199443Y308087D01*
X199443Y309037D02*
X190443Y309037D01*
X190443Y309987D02*
X199443Y309987D01*
X199443Y310937D02*
X190443Y310937D01*
X190443Y311887D02*
X199443Y311887D01*
X182507Y322707D02*
X173507Y322707D01*
X173507Y332707D01*
X182507Y332707D01*
X182507Y322707D01*
X182507Y323657D02*
X173507Y323657D01*
X173507Y324607D02*
X182507Y324607D01*
X182507Y325557D02*
X173507Y325557D01*
X173507Y326507D02*
X182507Y326507D01*
X182507Y327457D02*
X173507Y327457D01*
X173507Y328407D02*
X182507Y328407D01*
X182507Y329357D02*
X173507Y329357D01*
X173507Y330307D02*
X182507Y330307D01*
X182507Y331257D02*
X173507Y331257D01*
X173507Y332207D02*
X182507Y332207D01*
X190507Y322707D02*
X199507Y322707D01*
X190507Y322707D02*
X190507Y332707D01*
X199507Y332707D01*
X199507Y322707D01*
X199507Y323657D02*
X190507Y323657D01*
X190507Y324607D02*
X199507Y324607D01*
X199507Y325557D02*
X190507Y325557D01*
X190507Y326507D02*
X199507Y326507D01*
X199507Y327457D02*
X190507Y327457D01*
X190507Y328407D02*
X199507Y328407D01*
X199507Y329357D02*
X190507Y329357D01*
X190507Y330307D02*
X199507Y330307D01*
X199507Y331257D02*
X190507Y331257D01*
X190507Y332207D02*
X199507Y332207D01*
X680000Y103000D02*
X694000Y103000D01*
X680000Y103000D02*
X680000Y107000D01*
X694000Y107000D01*
X694000Y103000D01*
X694000Y103950D02*
X680000Y103950D01*
X680000Y104900D02*
X694000Y104900D01*
X694000Y105850D02*
X680000Y105850D01*
X680000Y106800D02*
X694000Y106800D01*
X694000Y95000D02*
X680000Y95000D01*
X680000Y99000D01*
X694000Y99000D01*
X694000Y95000D01*
X694000Y95950D02*
X680000Y95950D01*
X680000Y96900D02*
X694000Y96900D01*
X694000Y97850D02*
X680000Y97850D01*
X680000Y98800D02*
X694000Y98800D01*
X694000Y87000D02*
X680000Y87000D01*
X680000Y91000D01*
X694000Y91000D01*
X694000Y87000D01*
X694000Y87950D02*
X680000Y87950D01*
X680000Y88900D02*
X694000Y88900D01*
X694000Y89850D02*
X680000Y89850D01*
X680000Y90800D02*
X694000Y90800D01*
X694000Y79000D02*
X680000Y79000D01*
X680000Y83000D01*
X694000Y83000D01*
X694000Y79000D01*
X694000Y79950D02*
X680000Y79950D01*
X680000Y80900D02*
X694000Y80900D01*
X694000Y81850D02*
X680000Y81850D01*
X680000Y82800D02*
X694000Y82800D01*
X694000Y71000D02*
X680000Y71000D01*
X680000Y75000D01*
X694000Y75000D01*
X694000Y71000D01*
X694000Y71950D02*
X680000Y71950D01*
X680000Y72900D02*
X694000Y72900D01*
X694000Y73850D02*
X680000Y73850D01*
X680000Y74800D02*
X694000Y74800D01*
X694000Y63000D02*
X680000Y63000D01*
X680000Y67000D01*
X694000Y67000D01*
X694000Y63000D01*
X694000Y63950D02*
X680000Y63950D01*
X680000Y64900D02*
X694000Y64900D01*
X694000Y65850D02*
X680000Y65850D01*
X680000Y66800D02*
X694000Y66800D01*
X694000Y55000D02*
X680000Y55000D01*
X680000Y59000D01*
X694000Y59000D01*
X694000Y55000D01*
X694000Y55950D02*
X680000Y55950D01*
X680000Y56900D02*
X694000Y56900D01*
X694000Y57850D02*
X680000Y57850D01*
X680000Y58800D02*
X694000Y58800D01*
X694000Y47000D02*
X680000Y47000D01*
X680000Y51000D01*
X694000Y51000D01*
X694000Y47000D01*
X694000Y47950D02*
X680000Y47950D01*
X680000Y48900D02*
X694000Y48900D01*
X694000Y49850D02*
X680000Y49850D01*
X680000Y50800D02*
X694000Y50800D01*
X694000Y39000D02*
X680000Y39000D01*
X680000Y43000D01*
X694000Y43000D01*
X694000Y39000D01*
X694000Y39950D02*
X680000Y39950D01*
X680000Y40900D02*
X694000Y40900D01*
X694000Y41850D02*
X680000Y41850D01*
X680000Y42800D02*
X694000Y42800D01*
X694000Y31000D02*
X680000Y31000D01*
X680000Y35000D01*
X694000Y35000D01*
X694000Y31000D01*
X694000Y31950D02*
X680000Y31950D01*
X680000Y32900D02*
X694000Y32900D01*
X694000Y33850D02*
X680000Y33850D01*
X680000Y34800D02*
X694000Y34800D01*
X694000Y23000D02*
X680000Y23000D01*
X680000Y27000D01*
X694000Y27000D01*
X694000Y23000D01*
X694000Y23950D02*
X680000Y23950D01*
X680000Y24900D02*
X694000Y24900D01*
X694000Y25850D02*
X680000Y25850D01*
X680000Y26800D02*
X694000Y26800D01*
X703000Y0D02*
X707000Y0D01*
X703000Y0D02*
X703000Y14000D01*
X707000Y14000D01*
X707000Y0D01*
X707000Y950D02*
X703000Y950D01*
X703000Y1900D02*
X707000Y1900D01*
X707000Y2850D02*
X703000Y2850D01*
X703000Y3800D02*
X707000Y3800D01*
X707000Y4750D02*
X703000Y4750D01*
X703000Y5700D02*
X707000Y5700D01*
X707000Y6650D02*
X703000Y6650D01*
X703000Y7600D02*
X707000Y7600D01*
X707000Y8550D02*
X703000Y8550D01*
X703000Y9500D02*
X707000Y9500D01*
X707000Y10450D02*
X703000Y10450D01*
X703000Y11400D02*
X707000Y11400D01*
X707000Y12350D02*
X703000Y12350D01*
X703000Y13300D02*
X707000Y13300D01*
X711000Y0D02*
X715000Y0D01*
X711000Y0D02*
X711000Y14000D01*
X715000Y14000D01*
X715000Y0D01*
X715000Y950D02*
X711000Y950D01*
X711000Y1900D02*
X715000Y1900D01*
X715000Y2850D02*
X711000Y2850D01*
X711000Y3800D02*
X715000Y3800D01*
X715000Y4750D02*
X711000Y4750D01*
X711000Y5700D02*
X715000Y5700D01*
X715000Y6650D02*
X711000Y6650D01*
X711000Y7600D02*
X715000Y7600D01*
X715000Y8550D02*
X711000Y8550D01*
X711000Y9500D02*
X715000Y9500D01*
X715000Y10450D02*
X711000Y10450D01*
X711000Y11400D02*
X715000Y11400D01*
X715000Y12350D02*
X711000Y12350D01*
X711000Y13300D02*
X715000Y13300D01*
X719000Y0D02*
X723000Y0D01*
X719000Y0D02*
X719000Y14000D01*
X723000Y14000D01*
X723000Y0D01*
X723000Y950D02*
X719000Y950D01*
X719000Y1900D02*
X723000Y1900D01*
X723000Y2850D02*
X719000Y2850D01*
X719000Y3800D02*
X723000Y3800D01*
X723000Y4750D02*
X719000Y4750D01*
X719000Y5700D02*
X723000Y5700D01*
X723000Y6650D02*
X719000Y6650D01*
X719000Y7600D02*
X723000Y7600D01*
X723000Y8550D02*
X719000Y8550D01*
X719000Y9500D02*
X723000Y9500D01*
X723000Y10450D02*
X719000Y10450D01*
X719000Y11400D02*
X723000Y11400D01*
X723000Y12350D02*
X719000Y12350D01*
X719000Y13300D02*
X723000Y13300D01*
X727000Y0D02*
X731000Y0D01*
X727000Y0D02*
X727000Y14000D01*
X731000Y14000D01*
X731000Y0D01*
X731000Y950D02*
X727000Y950D01*
X727000Y1900D02*
X731000Y1900D01*
X731000Y2850D02*
X727000Y2850D01*
X727000Y3800D02*
X731000Y3800D01*
X731000Y4750D02*
X727000Y4750D01*
X727000Y5700D02*
X731000Y5700D01*
X731000Y6650D02*
X727000Y6650D01*
X727000Y7600D02*
X731000Y7600D01*
X731000Y8550D02*
X727000Y8550D01*
X727000Y9500D02*
X731000Y9500D01*
X731000Y10450D02*
X727000Y10450D01*
X727000Y11400D02*
X731000Y11400D01*
X731000Y12350D02*
X727000Y12350D01*
X727000Y13300D02*
X731000Y13300D01*
X735000Y0D02*
X739000Y0D01*
X735000Y0D02*
X735000Y14000D01*
X739000Y14000D01*
X739000Y0D01*
X739000Y950D02*
X735000Y950D01*
X735000Y1900D02*
X739000Y1900D01*
X739000Y2850D02*
X735000Y2850D01*
X735000Y3800D02*
X739000Y3800D01*
X739000Y4750D02*
X735000Y4750D01*
X735000Y5700D02*
X739000Y5700D01*
X739000Y6650D02*
X735000Y6650D01*
X735000Y7600D02*
X739000Y7600D01*
X739000Y8550D02*
X735000Y8550D01*
X735000Y9500D02*
X739000Y9500D01*
X739000Y10450D02*
X735000Y10450D01*
X735000Y11400D02*
X739000Y11400D01*
X739000Y12350D02*
X735000Y12350D01*
X735000Y13300D02*
X739000Y13300D01*
X743000Y0D02*
X747000Y0D01*
X743000Y0D02*
X743000Y14000D01*
X747000Y14000D01*
X747000Y0D01*
X747000Y950D02*
X743000Y950D01*
X743000Y1900D02*
X747000Y1900D01*
X747000Y2850D02*
X743000Y2850D01*
X743000Y3800D02*
X747000Y3800D01*
X747000Y4750D02*
X743000Y4750D01*
X743000Y5700D02*
X747000Y5700D01*
X747000Y6650D02*
X743000Y6650D01*
X743000Y7600D02*
X747000Y7600D01*
X747000Y8550D02*
X743000Y8550D01*
X743000Y9500D02*
X747000Y9500D01*
X747000Y10450D02*
X743000Y10450D01*
X743000Y11400D02*
X747000Y11400D01*
X747000Y12350D02*
X743000Y12350D01*
X743000Y13300D02*
X747000Y13300D01*
X751000Y0D02*
X755000Y0D01*
X751000Y0D02*
X751000Y14000D01*
X755000Y14000D01*
X755000Y0D01*
X755000Y950D02*
X751000Y950D01*
X751000Y1900D02*
X755000Y1900D01*
X755000Y2850D02*
X751000Y2850D01*
X751000Y3800D02*
X755000Y3800D01*
X755000Y4750D02*
X751000Y4750D01*
X751000Y5700D02*
X755000Y5700D01*
X755000Y6650D02*
X751000Y6650D01*
X751000Y7600D02*
X755000Y7600D01*
X755000Y8550D02*
X751000Y8550D01*
X751000Y9500D02*
X755000Y9500D01*
X755000Y10450D02*
X751000Y10450D01*
X751000Y11400D02*
X755000Y11400D01*
X755000Y12350D02*
X751000Y12350D01*
X751000Y13300D02*
X755000Y13300D01*
X759000Y0D02*
X763000Y0D01*
X759000Y0D02*
X759000Y14000D01*
X763000Y14000D01*
X763000Y0D01*
X763000Y950D02*
X759000Y950D01*
X759000Y1900D02*
X763000Y1900D01*
X763000Y2850D02*
X759000Y2850D01*
X759000Y3800D02*
X763000Y3800D01*
X763000Y4750D02*
X759000Y4750D01*
X759000Y5700D02*
X763000Y5700D01*
X763000Y6650D02*
X759000Y6650D01*
X759000Y7600D02*
X763000Y7600D01*
X763000Y8550D02*
X759000Y8550D01*
X759000Y9500D02*
X763000Y9500D01*
X763000Y10450D02*
X759000Y10450D01*
X759000Y11400D02*
X763000Y11400D01*
X763000Y12350D02*
X759000Y12350D01*
X759000Y13300D02*
X763000Y13300D01*
X767000Y0D02*
X771000Y0D01*
X767000Y0D02*
X767000Y14000D01*
X771000Y14000D01*
X771000Y0D01*
X771000Y950D02*
X767000Y950D01*
X767000Y1900D02*
X771000Y1900D01*
X771000Y2850D02*
X767000Y2850D01*
X767000Y3800D02*
X771000Y3800D01*
X771000Y4750D02*
X767000Y4750D01*
X767000Y5700D02*
X771000Y5700D01*
X771000Y6650D02*
X767000Y6650D01*
X767000Y7600D02*
X771000Y7600D01*
X771000Y8550D02*
X767000Y8550D01*
X767000Y9500D02*
X771000Y9500D01*
X771000Y10450D02*
X767000Y10450D01*
X767000Y11400D02*
X771000Y11400D01*
X771000Y12350D02*
X767000Y12350D01*
X767000Y13300D02*
X771000Y13300D01*
X775000Y0D02*
X779000Y0D01*
X775000Y0D02*
X775000Y14000D01*
X779000Y14000D01*
X779000Y0D01*
X779000Y950D02*
X775000Y950D01*
X775000Y1900D02*
X779000Y1900D01*
X779000Y2850D02*
X775000Y2850D01*
X775000Y3800D02*
X779000Y3800D01*
X779000Y4750D02*
X775000Y4750D01*
X775000Y5700D02*
X779000Y5700D01*
X779000Y6650D02*
X775000Y6650D01*
X775000Y7600D02*
X779000Y7600D01*
X779000Y8550D02*
X775000Y8550D01*
X775000Y9500D02*
X779000Y9500D01*
X779000Y10450D02*
X775000Y10450D01*
X775000Y11400D02*
X779000Y11400D01*
X779000Y12350D02*
X775000Y12350D01*
X775000Y13300D02*
X779000Y13300D01*
X783000Y0D02*
X787000Y0D01*
X783000Y0D02*
X783000Y14000D01*
X787000Y14000D01*
X787000Y0D01*
X787000Y950D02*
X783000Y950D01*
X783000Y1900D02*
X787000Y1900D01*
X787000Y2850D02*
X783000Y2850D01*
X783000Y3800D02*
X787000Y3800D01*
X787000Y4750D02*
X783000Y4750D01*
X783000Y5700D02*
X787000Y5700D01*
X787000Y6650D02*
X783000Y6650D01*
X783000Y7600D02*
X787000Y7600D01*
X787000Y8550D02*
X783000Y8550D01*
X783000Y9500D02*
X787000Y9500D01*
X787000Y10450D02*
X783000Y10450D01*
X783000Y11400D02*
X787000Y11400D01*
X787000Y12350D02*
X783000Y12350D01*
X783000Y13300D02*
X787000Y13300D01*
X796000Y23000D02*
X810000Y23000D01*
X796000Y23000D02*
X796000Y27000D01*
X810000Y27000D01*
X810000Y23000D01*
X810000Y23950D02*
X796000Y23950D01*
X796000Y24900D02*
X810000Y24900D01*
X810000Y25850D02*
X796000Y25850D01*
X796000Y26800D02*
X810000Y26800D01*
X810000Y31000D02*
X796000Y31000D01*
X796000Y35000D01*
X810000Y35000D01*
X810000Y31000D01*
X810000Y31950D02*
X796000Y31950D01*
X796000Y32900D02*
X810000Y32900D01*
X810000Y33850D02*
X796000Y33850D01*
X796000Y34800D02*
X810000Y34800D01*
X810000Y39000D02*
X796000Y39000D01*
X796000Y43000D01*
X810000Y43000D01*
X810000Y39000D01*
X810000Y39950D02*
X796000Y39950D01*
X796000Y40900D02*
X810000Y40900D01*
X810000Y41850D02*
X796000Y41850D01*
X796000Y42800D02*
X810000Y42800D01*
X810000Y47000D02*
X796000Y47000D01*
X796000Y51000D01*
X810000Y51000D01*
X810000Y47000D01*
X810000Y47950D02*
X796000Y47950D01*
X796000Y48900D02*
X810000Y48900D01*
X810000Y49850D02*
X796000Y49850D01*
X796000Y50800D02*
X810000Y50800D01*
X810000Y55000D02*
X796000Y55000D01*
X796000Y59000D01*
X810000Y59000D01*
X810000Y55000D01*
X810000Y55950D02*
X796000Y55950D01*
X796000Y56900D02*
X810000Y56900D01*
X810000Y57850D02*
X796000Y57850D01*
X796000Y58800D02*
X810000Y58800D01*
X810000Y63000D02*
X796000Y63000D01*
X796000Y67000D01*
X810000Y67000D01*
X810000Y63000D01*
X810000Y63950D02*
X796000Y63950D01*
X796000Y64900D02*
X810000Y64900D01*
X810000Y65850D02*
X796000Y65850D01*
X796000Y66800D02*
X810000Y66800D01*
X810000Y71000D02*
X796000Y71000D01*
X796000Y75000D01*
X810000Y75000D01*
X810000Y71000D01*
X810000Y71950D02*
X796000Y71950D01*
X796000Y72900D02*
X810000Y72900D01*
X810000Y73850D02*
X796000Y73850D01*
X796000Y74800D02*
X810000Y74800D01*
X810000Y79000D02*
X796000Y79000D01*
X796000Y83000D01*
X810000Y83000D01*
X810000Y79000D01*
X810000Y79950D02*
X796000Y79950D01*
X796000Y80900D02*
X810000Y80900D01*
X810000Y81850D02*
X796000Y81850D01*
X796000Y82800D02*
X810000Y82800D01*
X810000Y87000D02*
X796000Y87000D01*
X796000Y91000D01*
X810000Y91000D01*
X810000Y87000D01*
X810000Y87950D02*
X796000Y87950D01*
X796000Y88900D02*
X810000Y88900D01*
X810000Y89850D02*
X796000Y89850D01*
X796000Y90800D02*
X810000Y90800D01*
X810000Y95000D02*
X796000Y95000D01*
X796000Y99000D01*
X810000Y99000D01*
X810000Y95000D01*
X810000Y95950D02*
X796000Y95950D01*
X796000Y96900D02*
X810000Y96900D01*
X810000Y97850D02*
X796000Y97850D01*
X796000Y98800D02*
X810000Y98800D01*
X810000Y103000D02*
X796000Y103000D01*
X796000Y107000D01*
X810000Y107000D01*
X810000Y103000D01*
X810000Y103950D02*
X796000Y103950D01*
X796000Y104900D02*
X810000Y104900D01*
X810000Y105850D02*
X796000Y105850D01*
X796000Y106800D02*
X810000Y106800D01*
X787000Y116000D02*
X783000Y116000D01*
X783000Y130000D01*
X787000Y130000D01*
X787000Y116000D01*
X787000Y116950D02*
X783000Y116950D01*
X783000Y117900D02*
X787000Y117900D01*
X787000Y118850D02*
X783000Y118850D01*
X783000Y119800D02*
X787000Y119800D01*
X787000Y120750D02*
X783000Y120750D01*
X783000Y121700D02*
X787000Y121700D01*
X787000Y122650D02*
X783000Y122650D01*
X783000Y123600D02*
X787000Y123600D01*
X787000Y124550D02*
X783000Y124550D01*
X783000Y125500D02*
X787000Y125500D01*
X787000Y126450D02*
X783000Y126450D01*
X783000Y127400D02*
X787000Y127400D01*
X787000Y128350D02*
X783000Y128350D01*
X783000Y129300D02*
X787000Y129300D01*
X779000Y116000D02*
X775000Y116000D01*
X775000Y130000D01*
X779000Y130000D01*
X779000Y116000D01*
X779000Y116950D02*
X775000Y116950D01*
X775000Y117900D02*
X779000Y117900D01*
X779000Y118850D02*
X775000Y118850D01*
X775000Y119800D02*
X779000Y119800D01*
X779000Y120750D02*
X775000Y120750D01*
X775000Y121700D02*
X779000Y121700D01*
X779000Y122650D02*
X775000Y122650D01*
X775000Y123600D02*
X779000Y123600D01*
X779000Y124550D02*
X775000Y124550D01*
X775000Y125500D02*
X779000Y125500D01*
X779000Y126450D02*
X775000Y126450D01*
X775000Y127400D02*
X779000Y127400D01*
X779000Y128350D02*
X775000Y128350D01*
X775000Y129300D02*
X779000Y129300D01*
X771000Y116000D02*
X767000Y116000D01*
X767000Y130000D01*
X771000Y130000D01*
X771000Y116000D01*
X771000Y116950D02*
X767000Y116950D01*
X767000Y117900D02*
X771000Y117900D01*
X771000Y118850D02*
X767000Y118850D01*
X767000Y119800D02*
X771000Y119800D01*
X771000Y120750D02*
X767000Y120750D01*
X767000Y121700D02*
X771000Y121700D01*
X771000Y122650D02*
X767000Y122650D01*
X767000Y123600D02*
X771000Y123600D01*
X771000Y124550D02*
X767000Y124550D01*
X767000Y125500D02*
X771000Y125500D01*
X771000Y126450D02*
X767000Y126450D01*
X767000Y127400D02*
X771000Y127400D01*
X771000Y128350D02*
X767000Y128350D01*
X767000Y129300D02*
X771000Y129300D01*
X763000Y116000D02*
X759000Y116000D01*
X759000Y130000D01*
X763000Y130000D01*
X763000Y116000D01*
X763000Y116950D02*
X759000Y116950D01*
X759000Y117900D02*
X763000Y117900D01*
X763000Y118850D02*
X759000Y118850D01*
X759000Y119800D02*
X763000Y119800D01*
X763000Y120750D02*
X759000Y120750D01*
X759000Y121700D02*
X763000Y121700D01*
X763000Y122650D02*
X759000Y122650D01*
X759000Y123600D02*
X763000Y123600D01*
X763000Y124550D02*
X759000Y124550D01*
X759000Y125500D02*
X763000Y125500D01*
X763000Y126450D02*
X759000Y126450D01*
X759000Y127400D02*
X763000Y127400D01*
X763000Y128350D02*
X759000Y128350D01*
X759000Y129300D02*
X763000Y129300D01*
X755000Y116000D02*
X751000Y116000D01*
X751000Y130000D01*
X755000Y130000D01*
X755000Y116000D01*
X755000Y116950D02*
X751000Y116950D01*
X751000Y117900D02*
X755000Y117900D01*
X755000Y118850D02*
X751000Y118850D01*
X751000Y119800D02*
X755000Y119800D01*
X755000Y120750D02*
X751000Y120750D01*
X751000Y121700D02*
X755000Y121700D01*
X755000Y122650D02*
X751000Y122650D01*
X751000Y123600D02*
X755000Y123600D01*
X755000Y124550D02*
X751000Y124550D01*
X751000Y125500D02*
X755000Y125500D01*
X755000Y126450D02*
X751000Y126450D01*
X751000Y127400D02*
X755000Y127400D01*
X755000Y128350D02*
X751000Y128350D01*
X751000Y129300D02*
X755000Y129300D01*
X747000Y116000D02*
X743000Y116000D01*
X743000Y130000D01*
X747000Y130000D01*
X747000Y116000D01*
X747000Y116950D02*
X743000Y116950D01*
X743000Y117900D02*
X747000Y117900D01*
X747000Y118850D02*
X743000Y118850D01*
X743000Y119800D02*
X747000Y119800D01*
X747000Y120750D02*
X743000Y120750D01*
X743000Y121700D02*
X747000Y121700D01*
X747000Y122650D02*
X743000Y122650D01*
X743000Y123600D02*
X747000Y123600D01*
X747000Y124550D02*
X743000Y124550D01*
X743000Y125500D02*
X747000Y125500D01*
X747000Y126450D02*
X743000Y126450D01*
X743000Y127400D02*
X747000Y127400D01*
X747000Y128350D02*
X743000Y128350D01*
X743000Y129300D02*
X747000Y129300D01*
X739000Y116000D02*
X735000Y116000D01*
X735000Y130000D01*
X739000Y130000D01*
X739000Y116000D01*
X739000Y116950D02*
X735000Y116950D01*
X735000Y117900D02*
X739000Y117900D01*
X739000Y118850D02*
X735000Y118850D01*
X735000Y119800D02*
X739000Y119800D01*
X739000Y120750D02*
X735000Y120750D01*
X735000Y121700D02*
X739000Y121700D01*
X739000Y122650D02*
X735000Y122650D01*
X735000Y123600D02*
X739000Y123600D01*
X739000Y124550D02*
X735000Y124550D01*
X735000Y125500D02*
X739000Y125500D01*
X739000Y126450D02*
X735000Y126450D01*
X735000Y127400D02*
X739000Y127400D01*
X739000Y128350D02*
X735000Y128350D01*
X735000Y129300D02*
X739000Y129300D01*
X731000Y116000D02*
X727000Y116000D01*
X727000Y130000D01*
X731000Y130000D01*
X731000Y116000D01*
X731000Y116950D02*
X727000Y116950D01*
X727000Y117900D02*
X731000Y117900D01*
X731000Y118850D02*
X727000Y118850D01*
X727000Y119800D02*
X731000Y119800D01*
X731000Y120750D02*
X727000Y120750D01*
X727000Y121700D02*
X731000Y121700D01*
X731000Y122650D02*
X727000Y122650D01*
X727000Y123600D02*
X731000Y123600D01*
X731000Y124550D02*
X727000Y124550D01*
X727000Y125500D02*
X731000Y125500D01*
X731000Y126450D02*
X727000Y126450D01*
X727000Y127400D02*
X731000Y127400D01*
X731000Y128350D02*
X727000Y128350D01*
X727000Y129300D02*
X731000Y129300D01*
X723000Y116000D02*
X719000Y116000D01*
X719000Y130000D01*
X723000Y130000D01*
X723000Y116000D01*
X723000Y116950D02*
X719000Y116950D01*
X719000Y117900D02*
X723000Y117900D01*
X723000Y118850D02*
X719000Y118850D01*
X719000Y119800D02*
X723000Y119800D01*
X723000Y120750D02*
X719000Y120750D01*
X719000Y121700D02*
X723000Y121700D01*
X723000Y122650D02*
X719000Y122650D01*
X719000Y123600D02*
X723000Y123600D01*
X723000Y124550D02*
X719000Y124550D01*
X719000Y125500D02*
X723000Y125500D01*
X723000Y126450D02*
X719000Y126450D01*
X719000Y127400D02*
X723000Y127400D01*
X723000Y128350D02*
X719000Y128350D01*
X719000Y129300D02*
X723000Y129300D01*
X715000Y116000D02*
X711000Y116000D01*
X711000Y130000D01*
X715000Y130000D01*
X715000Y116000D01*
X715000Y116950D02*
X711000Y116950D01*
X711000Y117900D02*
X715000Y117900D01*
X715000Y118850D02*
X711000Y118850D01*
X711000Y119800D02*
X715000Y119800D01*
X715000Y120750D02*
X711000Y120750D01*
X711000Y121700D02*
X715000Y121700D01*
X715000Y122650D02*
X711000Y122650D01*
X711000Y123600D02*
X715000Y123600D01*
X715000Y124550D02*
X711000Y124550D01*
X711000Y125500D02*
X715000Y125500D01*
X715000Y126450D02*
X711000Y126450D01*
X711000Y127400D02*
X715000Y127400D01*
X715000Y128350D02*
X711000Y128350D01*
X711000Y129300D02*
X715000Y129300D01*
X707000Y116000D02*
X703000Y116000D01*
X703000Y130000D01*
X707000Y130000D01*
X707000Y116000D01*
X707000Y116950D02*
X703000Y116950D01*
X703000Y117900D02*
X707000Y117900D01*
X707000Y118850D02*
X703000Y118850D01*
X703000Y119800D02*
X707000Y119800D01*
X707000Y120750D02*
X703000Y120750D01*
X703000Y121700D02*
X707000Y121700D01*
X707000Y122650D02*
X703000Y122650D01*
X703000Y123600D02*
X707000Y123600D01*
X707000Y124550D02*
X703000Y124550D01*
X703000Y125500D02*
X707000Y125500D01*
X707000Y126450D02*
X703000Y126450D01*
X703000Y127400D02*
X707000Y127400D01*
X707000Y128350D02*
X703000Y128350D01*
X703000Y129300D02*
X707000Y129300D01*
M02*
